<svg width="91" height="52" viewBox="0 0 91 52" fill="none" xmlns="http://www.w3.org/2000/svg">
<path d="M30.16 8.16L10.46 51.04H22.12L35.66 21.57L49.2 51.04H60.85L41.15 8.16H30.16Z" fill="white"/>
<path d="M51.04 8.16L47.29 16.33L53.12 29.01L56.54 21.57L70.08 51.04H81.74L62.04 8.16H51.04Z" fill="white"/>
<path d="M22.12 51.04H49.2L35.66 21.57L22.12 51.04Z" fill="#1F429A"/>
<path d="M90.81 0H0V51.04H10.46L30.16 8.17H41.15L60.85 51.04H70.08L56.54 21.57L53.12 29.01L47.29 16.33L51.04 8.17H62.04L81.74 51.04H90.81V0Z" fill="#1F429A"/>
</svg>
