<svg width="31" height="22" viewBox="0 0 31 22" fill="none" xmlns="http://www.w3.org/2000/svg">
<path d="M8 2C8 0.895431 8.89543 0 10 0H29C30.1046 0 31 0.895431 31 2C31 3.10457 30.1046 4 29 4H10C8.89543 4 8 3.10457 8 2Z" fill="#ffffff"/>
<path d="M0 11C0 9.89543 0.895431 9 2 9H29C30.1046 9 31 9.89543 31 11C31 12.1046 30.1046 13 29 13H2C0.895431 13 0 12.1046 0 11Z" fill="#ffffff"/>
<path d="M14 20C14 18.8954 14.8954 18 16 18H29C30.1046 18 31 18.8954 31 20C31 21.1046 30.1046 22 29 22H16C14.8954 22 14 21.1046 14 20Z" fill="#ffffff"/>
</svg>