<?xml version="1.0" encoding="UTF-8"?>
<svg id="Layer_1" xmlns="http://www.w3.org/2000/svg" version="1.1" xmlns:xlink="http://www.w3.org/1999/xlink" viewBox="0 0 472 131">
  <!-- Generator: Adobe Illustrator 29.8.2, SVG Export Plug-In . SVG Version: 2.1.1 Build 3)  -->
  <defs>
    <style>
      .st0 {
        fill: #fff;
      }

      .st1 {
        fill: #1f429a;
      }

      .st2 {
        fill: none;
      }

      .st3, .st4 {
        fill: #20275c;
      }

      .st5 {
        clip-path: url(#clippath);
      }

      .st4 {
        font-family: CeraStencil-Bold, 'Cera Stencil';
        font-size: 58.14px;
        font-weight: 700;
      }
    </style>
    <clipPath id="clippath">
      <polygon class="st2" points="111.62 38.47 427.93 39.73 442.96 77.45 439.14 84.24 343.49 88.32 103.1 96.81 106.73 40.18 111.62 38.47"/>
    </clipPath>
  </defs>
  <path class="st3" d="M439.36,75.14l5.22-13.37-8.27-1.49c-.69-.12-1-.95-.55-1.49l15.76-19.07c.67-.81,1.95-.05,1.57.92l-5.22,13.37,8.27,1.49c.69.12,1,.95.55,1.49l-15.76,19.07c-.67.81-1.95.05-1.57-.92Z"/>
  <g class="st5">
    <text class="st4" transform="translate(111.62 82.08)"><tspan x="0" y="0">SOMOCO EV</tspan></text>
  </g>
  <polygon class="st0" points="45.26 42.35 25.56 85.23 37.22 85.23 50.76 55.76 64.3 85.23 75.95 85.23 56.25 42.35 45.26 42.35"/>
  <polygon class="st0" points="66.14 42.35 62.39 50.52 68.22 63.2 71.64 55.76 85.18 85.23 90.28 85.23 96.84 85.23 77.14 42.35 66.14 42.35"/>
  <polygon class="st1" points="37.22 85.23 64.3 85.23 50.76 55.76 37.22 85.23"/>
  <polygon class="st1" points="105.91 34.19 15.1 34.19 15.1 85.23 25.56 85.23 45.26 42.36 56.25 42.36 75.95 85.23 85.18 85.23 71.64 55.76 68.22 63.2 62.39 50.52 66.14 42.36 77.14 42.36 96.84 85.23 105.91 85.23 105.91 34.19"/>
</svg>