<?xml version="1.0" encoding="UTF-8"?>
<svg id="Layer_1" xmlns="http://www.w3.org/2000/svg" version="1.1" xmlns:xlink="http://www.w3.org/1999/xlink" viewBox="0 0 472 131">
  <!-- Generator: Adobe Illustrator 29.8.2, SVG Export Plug-In . SVG Version: 2.1.1 Build 3)  -->
  <defs>
    <style>
      .st0, .st1 {
        fill: #fff;
      }

      .st2 {
        fill: none;
      }

      .st1 {
        font-family: CeraStencil-Bold, 'Cera Stencil';
        font-size: 54.88px;
        font-weight: 700;
      }

      .st3 {
        clip-path: url(#clippath);
      }
    </style>
    <clipPath id="clippath">
      <polygon class="st2" points="122.37 41.69 420.98 42.88 435.17 78.48 431.56 84.9 341.27 88.75 114.34 96.77 117.76 43.31 122.37 41.69"/>
    </clipPath>
  </defs>
  <path class="st0" d="M431.77,76.3l4.93-12.62-7.81-1.4c-.65-.12-.94-.9-.52-1.41l14.88-18c.63-.76,1.84-.05,1.48.87l-4.93,12.62,7.81,1.4c.65.12.94.9.52,1.41l-14.88,18c-.63.76-1.84.05-1.48-.87Z"/>
  <g class="st3">
    <text class="st1" transform="translate(122.37 82.85)"><tspan x="0" y="0">SOMOCO EV</tspan></text>
  </g>
  <polygon class="st0" points="52.14 85.83 77.7 85.83 64.92 58.01 52.14 85.83"/>
  <polygon class="st0" points="116.99 37.65 31.26 37.65 31.26 85.83 41.13 85.83 59.73 45.36 70.11 45.36 88.71 85.83 97.41 85.83 84.63 58.01 81.4 65.04 75.9 53.06 79.44 45.36 89.82 45.36 108.42 85.83 116.99 85.83 116.99 37.65"/>
</svg>